<svg xmlns="http://www.w3.org/2000/svg" viewBox="0 0 64 64"><defs><linearGradient id="gold" x1="0" y1="0" x2="1" y2="1"><stop stop-color="#f9df74"/><stop offset=".55" stop-color="#d9a928"/><stop offset="1" stop-color="#9d6412"/></linearGradient><linearGradient id="green" x1="0" y1="0" x2="1" y2="1"><stop stop-color="#24715e"/><stop offset="1" stop-color="#082d27"/></linearGradient></defs><rect x="2" y="2" width="60" height="60" rx="16" fill="url(#gold)"/><path d="M18 24h31a8 8 0 0 1 8 8v16a8 8 0 0 1-8 8H17a8 8 0 0 1-8-8V32a8 8 0 0 1 9-8Z" fill="#0b2f29" opacity=".38"/><path d="M18 20h30a8 8 0 0 1 8 8v18a8 8 0 0 1-8 8H16a8 8 0 0 1-8-8V29a9 9 0 0 1 10-9Z" fill="url(#green)"/><path d="M14 23 32 10l19 13h-8L32 16 21 23Z" fill="#f7e49a"/><text x="31.7" y="46" fill="#fff2a8" font-family="Georgia,serif" font-size="24" font-weight="900" letter-spacing="-5">BF</text><path d="M14 55h34v4H14z" fill="#e6bd45"/></svg>
